<svg width="0" height="0" class="hidden">
  <symbol fill="none" xmlns="http://www.w3.org/2000/svg" viewBox="0 0 28 31" id="basket">
    <path d="M20.015 15.8a1.97 1.97 0 00-1.403.581l-.612.612-.611-.611a1.985 1.985 0 00-2.808 2.807l3.065 3.065a.5.5 0 00.707 0l3.066-3.065a1.986 1.986 0 00-1.404-3.389zm.697 2.681L18 21.193l-2.711-2.712a.985.985 0 011.392-1.392l.965.965a.498.498 0 00.707 0l.966-.965a.985.985 0 011.393 1.392z" fill="#000"></path>
    <path d="M27.755 8.07l-13.5-8a.5.5 0 00-.511 0L.244 8.129a.5.5 0 00-.244.43v21a.5.5 0 00.5.5h.001l27-.058a.5.5 0 00.499-.5v-21a.5.5 0 00-.245-.43zM10 16.042V17.5a.5.5 0 00.276.447l1.743.871a2.36 2.36 0 011.267 1.659l.224 1.121a.5.5 0 00.136.256l.051.05a.999.999 0 01.074 1.332l-.161.201-.161.202a2.295 2.295 0 01-3.414.189l-.181-.182a.5.5 0 00-.707.707l.181.182a3.292 3.292 0 004.66 0l.622.777a.5.5 0 00.253.169l.134.038A4.16 4.16 0 0117.97 29H6.37l-.193-.63a11.983 11.983 0 011.345-9.972l.401-.63a.5.5 0 00.025-.044l.116-.232A2.681 2.681 0 0110 16.042zm5.29 8.521l-.653-.817a1.998 1.998 0 00-.176-2.49l-.195-.975a3.354 3.354 0 00-1.8-2.357L11 17.191v-1.507l2.045-.186a.5.5 0 00.402-.274l.5-1a.5.5 0 00-.894-.448l-.376.751-4.926.448-.558-.836.066-.044a2.108 2.108 0 00.851-2.341l1.614-.807a.5.5 0 00.24-.262l.613-1.53a1.747 1.747 0 011.071-1.011l1.188-.396c.182-.06.37-.102.562-.123.2.23.38.477.537.738l.51.849A3.9 3.9 0 0115 11.219v1.045a2.5 2.5 0 005 0c0-.202-.013-.405-.038-.606.2.259.392.525.575.798a18.73 18.73 0 013.003 8.163c.3 2.531.076 5.096-.659 7.536l-.256.855-3.649.008a5.165 5.165 0 00-3.685-4.455zM6.545 13.165a.5.5 0 01.193-.724l.45-.225a1.105 1.105 0 01-.483 1.047l-.065.044-.095-.142zm11.139-3.822A3.907 3.907 0 0119 12.264a1.49 1.49 0 01-.83 1.342 1.508 1.508 0 01-1.947-.553 1.49 1.49 0 01-.223-.789v-1.045a4.9 4.9 0 00-.698-2.52l-.51-.85c-.014-.024-.03-.047-.045-.071a7.285 7.285 0 012.332 1.107c.206.147.407.3.604.458zM27 29.001l-3.33.007.17-.566c.774-2.57 1.01-5.273.693-7.94a19.735 19.735 0 00-3.164-8.6 14.724 14.724 0 00-3.041-3.324 4.9 4.9 0 00-.38-.3.505.505 0 00-.047-.03l-.24-.177a8.285 8.285 0 00-3.213-1.391 3.77 3.77 0 00-1.928.12l-1.188.396A2.746 2.746 0 009.65 8.783l-.543 1.355-2.817 1.408a1.5 1.5 0 00-.577 2.174l.372.557 1 1.5a.5.5 0 00.461.22l.445-.04a3.715 3.715 0 00-.822 1.088l-.104.208-.387.608A12.981 12.981 0 005.22 28.664l.118.383-4.337.01V8.84l13-7.76 13 7.704V29z" fill="#000"></path>
    <path d="M11.5 21.688a.687.687 0 100-1.375.687.687 0 000 1.375zm.313-10.188a.687.687 0 100-1.375.687.687 0 000 1.375z" fill="#000"></path>
  </symbol>
  <symbol fill="none" xmlns="http://www.w3.org/2000/svg" viewBox="0 0 32 33" id="bonus">
    <rect x=".612" y="7.634" width="16.141" height="25.663" rx="3.5" transform="rotate(-15 .612 7.634)" stroke="#000"></rect>
    <rect x="15.787" y=".611" width="16.141" height="25.663" rx="3.5" transform="rotate(14.851 15.787 .611)" fill="#fff" stroke="#000"></rect>
  </symbol>

  <symbol fill="none" xmlns="http://www.w3.org/2000/svg" viewBox="0 0 18 18" id="delete_basket">
    <path d="M2.25 4.5h13.5M6 4.5V3a1.5 1.5 0 011.5-1.5h3A1.5 1.5 0 0112 3v1.5m2.25 0V15a1.5 1.5 0 01-1.5 1.5h-7.5a1.5 1.5 0 01-1.5-1.5V4.5h10.5zM7.5 8.25v4.5m3-4.5v4.5" opacity=".5" stroke="#25282B" stroke-width="2" stroke-linecap="round" stroke-linejoin="round"></path>
  </symbol>

    <symbol fill="none" xmlns="http://www.w3.org/2000/svg" viewBox="0 0 17 16" id="filter">
    <path d="M16 1H1l6 7.095V13l3 1.5V8.095L16 1z" stroke="#FBBA3C" stroke-width="1.5" stroke-linecap="round" stroke-linejoin="round"></path>
  </symbol>

   
    <symbol fill="none" xmlns="http://www.w3.org/2000/svg" viewBox="0 0 24 24" id="mark">
    <rect x=".5" y=".5" width="23" height="23" rx="3.5" fill="#fff" stroke="#E8E8E8"></rect>
  </symbol>

  <symbol fill="none" xmlns="http://www.w3.org/2000/svg" viewBox="0 0 24 24" id="mark_empty">
    <rect x=".5" y=".5" width="23" height="23" rx="3.5" fill="#fff" stroke="#E8E8E8"></rect>
  </symbol>

    <symbol fill="none" xmlns="http://www.w3.org/2000/svg" viewBox="0 0 30 32" id="oder">
    <path d="M29.733 7.06L15.203.048a.469.469 0 00-.407 0L.267 7.06a.469.469 0 00-.265.422v17.034c0 .18.103.344.265.422l14.53 7.014a.468.468 0 00.407 0l14.53-7.014a.469.469 0 00.264-.422V7.483a.469.469 0 00-.265-.422zM15 .99l13.451 6.493-3.899 1.882a.466.466 0 00-.08-.05l-13.36-6.45L15 .99zm-4.946 2.406L23.486 9.88l-2.751 1.328L7.309 4.726l2.745-1.33zM23.8 10.769v4.91l-2.57 1.24v-4.91l2.57-1.24zm5.26 13.454l-13.59 6.561V14.791l5.673-2.739a.469.469 0 10-.407-.844L15 13.976l-3.303-1.594a.469.469 0 10-.407.844l3.241 1.565v15.993L.94 24.223V8.23l10.35 4.996a.467.467 0 00.626-.218.469.469 0 00-.219-.626L1.55 7.482l4.657-2.247 14.08 6.798.007.008v5.625a.469.469 0 00.672.422l3.508-1.693a.469.469 0 00.265-.422v-5.656L29.06 8.23v15.993z" fill="#000"></path>
  </symbol>

  <symbol fill="none" xmlns="http://www.w3.org/2000/svg" viewBox="0 0 32 32" id="promotions">
    <path d="M12.385 31.377c-.198 0-.396-.023-.588-.072-.904-.232-1.493-.954-2.062-1.652a4.563 4.563 0 00-1.127-1.118 4.89 4.89 0 00-1.601-.39c-.905-.126-1.84-.256-2.49-.878-.649-.623-.784-1.522-.915-2.391a4.402 4.402 0 00-.406-1.537 4.586 4.586 0 00-1.166-1.082c-.727-.546-1.478-1.111-1.72-1.98-.23-.832.116-1.665.45-2.47a4.487 4.487 0 00.458-1.565 4.487 4.487 0 00-.457-1.564c-.336-.805-.683-1.638-.45-2.471.241-.868.993-1.434 1.72-1.98a4.59 4.59 0 001.165-1.082 4.388 4.388 0 00.403-1.536c.131-.87.266-1.768.915-2.391.65-.623 1.587-.753 2.491-.879a4.887 4.887 0 001.6-.39A4.56 4.56 0 009.733 2.83c.57-.698 1.158-1.42 2.061-1.651.87-.221 1.736.11 2.576.432a4.966 4.966 0 001.63.437 4.967 4.967 0 001.629-.438c.838-.323 1.706-.655 2.574-.433.904.232 1.493.954 2.062 1.652a4.56 4.56 0 001.127 1.119 4.891 4.891 0 001.6.387c.905.126 1.841.255 2.49.878.65.624.785 1.522.915 2.39.041.532.179 1.052.407 1.537.32.424.714.79 1.165 1.083.727.546 1.478 1.111 1.72 1.979.23.833-.115 1.666-.45 2.472a4.485 4.485 0 00-.457 1.564c.055.543.21 1.073.457 1.564.335.805.682 1.638.45 2.471-.242.868-.993 1.433-1.72 1.98a4.592 4.592 0 00-1.165 1.082 4.388 4.388 0 00-.404 1.537c-.13.869-.266 1.767-.915 2.39-.649.623-1.585.753-2.49.879a4.881 4.881 0 00-1.6.39 4.563 4.563 0 00-1.127 1.118c-.57.698-1.158 1.42-2.062 1.652-.868.222-1.736-.11-2.575-.432A4.975 4.975 0 0016 30.433a4.968 4.968 0 00-1.629.44 5.725 5.725 0 01-1.986.504zm0-29.163c-.099 0-.197.01-.292.034-.531.136-.98.684-1.452 1.265a5.407 5.407 0 01-1.456 1.394 5.775 5.775 0 01-2.014.528A3.487 3.487 0 005.333 6a3.169 3.169 0 00-.589 1.766A5.188 5.188 0 014.195 9.7a5.397 5.397 0 01-1.456 1.4c-.605.453-1.176.885-1.318 1.393a3.12 3.12 0 00.407 1.775c.308.62.491 1.29.54 1.975a5.28 5.28 0 01-.54 1.975 3.12 3.12 0 00-.407 1.775c.142.51.713.94 1.318 1.393a5.396 5.396 0 011.452 1.4c.308.605.495 1.26.55 1.933.014.63.218 1.244.589 1.765a3.486 3.486 0 001.838.566 5.77 5.77 0 012.014.527 5.406 5.406 0 011.457 1.394c.474.58.923 1.129 1.453 1.265a3.485 3.485 0 001.848-.391 5.875 5.875 0 012.06-.518 5.865 5.865 0 012.056.518 3.46 3.46 0 001.85.391c.531-.136.98-.684 1.451-1.265a5.41 5.41 0 011.458-1.395 5.77 5.77 0 012.013-.527 3.486 3.486 0 001.84-.565c.37-.522.574-1.135.588-1.766a5.187 5.187 0 01.55-1.933 5.394 5.394 0 011.455-1.4c.604-.454 1.175-.885 1.317-1.393a3.12 3.12 0 00-.406-1.774 5.278 5.278 0 01-.54-1.975 5.278 5.278 0 01.54-1.975c.31-.542.45-1.159.406-1.776-.142-.51-.712-.94-1.316-1.393a5.392 5.392 0 01-1.453-1.4 5.19 5.19 0 01-.55-1.933A3.162 3.162 0 0026.666 6a3.482 3.482 0 00-1.839-.566 5.775 5.775 0 01-2.013-.527 5.402 5.402 0 01-1.457-1.395c-.474-.58-.923-1.128-1.452-1.264a3.468 3.468 0 00-1.85.39A5.866 5.866 0 0116 3.156a5.866 5.866 0 01-2.057-.518 4.856 4.856 0 00-1.558-.423z" fill="#000"></path>
    <path d="M16 26.464c-2.106 0-4.165-.6-5.916-1.723a10.325 10.325 0 01-3.922-4.587 9.843 9.843 0 01-.606-5.906A10.103 10.103 0 018.47 9.014a10.793 10.793 0 015.452-2.798 11.061 11.061 0 016.153.582 10.566 10.566 0 014.778 3.765 9.933 9.933 0 011.795 5.679c-.003 2.71-1.126 5.308-3.122 7.225-1.996 1.916-4.703 2.994-7.526 2.997zm0-19.337a9.779 9.779 0 00-5.275 1.536 9.206 9.206 0 00-3.498 4.09 8.777 8.777 0 00-.54 5.267 9.009 9.009 0 002.599 4.667 9.624 9.624 0 004.861 2.495 9.863 9.863 0 005.486-.519 9.422 9.422 0 004.262-3.357 8.857 8.857 0 001.6-5.064c-.003-2.417-1.004-4.734-2.784-6.443C20.93 8.09 18.517 7.13 16 7.127z" fill="#000"></path>
    <path d="M11.816 21.034a.594.594 0 01-.32-.094.56.56 0 01-.213-.248.534.534 0 01.125-.603l8.548-8.21a.577.577 0 01.41-.169.6.6 0 01.412.162.552.552 0 01.17.396.536.536 0 01-.177.394l-8.548 8.21a.59.59 0 01-.407.162zm7.124.211c-.444 0-.88-.126-1.249-.363a2.18 2.18 0 01-.828-.97 2.078 2.078 0 01-.128-1.246c.087-.42.3-.804.615-1.106a2.28 2.28 0 011.152-.59 2.332 2.332 0 011.299.122c.41.164.762.44 1.01.795.246.355.378.773.378 1.2 0 .572-.237 1.121-.659 1.526a2.297 2.297 0 01-1.59.632zm0-3.205c-.216 0-.428.062-.608.177-.18.116-.32.28-.404.472a1.012 1.012 0 00-.062.608c.042.204.147.391.3.538.153.147.348.248.56.288.213.04.434.02.634-.06s.37-.214.491-.387a1.022 1.022 0 00-.136-1.328 1.119 1.119 0 00-.775-.308zm-5.88-2.49a2.32 2.32 0 01-1.25-.364 2.18 2.18 0 01-.828-.969 2.08 2.08 0 01-.128-1.247c.087-.419.301-.803.616-1.105a2.28 2.28 0 011.15-.591c.437-.083.89-.04 1.3.123.411.163.762.44 1.01.795.246.355.378.772.378 1.2a2.12 2.12 0 01-.658 1.526 2.297 2.297 0 01-1.59.632zm0-3.206c-.217 0-.429.062-.61.178-.18.115-.32.28-.402.472a1.012 1.012 0 00-.063.607c.042.204.147.392.3.539.153.147.348.247.56.288.213.04.434.02.634-.06s.371-.215.491-.388a1.022 1.022 0 00-.135-1.328 1.1 1.1 0 00-.356-.228 1.136 1.136 0 00-.42-.08z" fill="#000"></path>
  </symbol>

   <symbol fill="none" xmlns="http://www.w3.org/2000/svg" viewBox="0 0 18 18" id="search">
    <path d="M8.25 14.25a6 6 0 100-12 6 6 0 000 12zm7.5 1.5l-3.262-3.262" opacity=".2" stroke="#25282B" stroke-width="2" stroke-linecap="round" stroke-linejoin="round"></path>
  </symbol>
<symbol fill="none" xmlns="http://www.w3.org/2000/svg" viewBox="0 0 16 13" id="burger">
    <path stroke="#000" stroke-width="1.5" stroke-linecap="round" stroke-linejoin="round" d="M.75 1.25h14.5m-14.5 5h14.5m-14.5 5h14.5"></path>
  </symbol>
   <symbol fill="none" xmlns="http://www.w3.org/2000/svg" viewBox="0 0 9 5" id="Arrow">
    <path opacity=".5" fill-rule="evenodd" clip-rule="evenodd" d="M.965 3.737L4.147.555a.5.5 0 01.707 0l3.182 3.182a.5.5 0 01-.707.708L4.793 1.909h-.586L1.672 4.445a.5.5 0 01-.707-.708z" fill="#000"></path>
  </symbol>
</svg>

